<svg width="39" height="35" viewBox="0 0 39 35" fill="none" xmlns="http://www.w3.org/2000/svg">
<path d="M19.189 35C13.7733 35 8.3576 35 2.9419 35C2.34833 35 2.26267 34.9153 2.26267 34.3339C2.26267 33.9197 2.24252 33.5035 2.26872 33.0903C2.28887 32.7658 2.21934 32.6227 1.85251 32.6539C1.41615 32.6912 0.973748 32.666 0.534364 32.662C0.128237 32.658 0.00226641 32.53 0.00125865 32.1148C-0.000756864 30.2172 0.000252986 28.3206 0.000252986 26.423C0.000252986 20.4792 0.000252986 14.5364 0.000252986 8.59266C0.000252986 7.91847 0.070795 7.84994 0.76111 7.84994C1.99259 7.84994 3.22407 7.83483 4.45556 7.86002C4.79316 7.86708 4.75789 7.70281 4.77401 7.4801C4.79416 7.21304 4.7085 7.13846 4.44447 7.15056C3.94261 7.17273 3.43973 7.16165 2.93686 7.1556C2.55391 7.15056 2.41182 7.01149 2.41081 6.63358C2.40678 5.42729 2.41182 4.221 2.40779 3.01472C2.40678 2.66502 2.58314 2.5189 2.91671 2.5068C3.20089 2.49572 3.59997 2.6368 3.74005 2.44533C3.88516 2.2468 3.79144 1.8699 3.79447 1.57059C3.7985 1.24408 3.79245 0.917568 3.79648 0.590046C3.80152 0.133531 3.9285 0.0025194 4.37594 0.00151164C5.77068 -0.00050388 7.16542 -0.00050388 8.56016 0.00151164C9.04086 0.0025194 9.14769 0.113374 9.15071 0.607176C9.15373 1.12214 9.16885 1.63812 9.14466 2.15207C9.13156 2.43626 9.21319 2.5068 9.49738 2.50479C11.5834 2.49169 13.6685 2.49773 15.7546 2.49773C16.3562 2.49773 16.4449 2.58843 16.4449 3.19813C16.4449 4.30364 16.4459 5.40915 16.4449 6.51567C16.4449 7.03568 16.332 7.14451 15.7979 7.14552C15.3202 7.14653 14.8415 7.16971 14.3659 7.13746C14.0222 7.11428 14.0948 7.32289 14.0857 7.51335C14.0756 7.7139 14.0666 7.85196 14.3639 7.84994C16.5628 7.83483 18.7617 7.84188 20.9606 7.84188C23.6624 7.84188 26.3643 7.8308 29.065 7.85398C29.4651 7.857 29.5266 7.73607 29.5185 7.37932C29.4944 6.37459 29.5064 5.36884 29.5105 4.3641C29.5206 2.21153 30.9798 0.741209 33.1243 0.731132C34.6319 0.724077 36.1395 0.728107 37.6481 0.730123C38.2205 0.731131 38.3697 0.946792 38.1641 1.4799C37.7539 2.54308 37.3327 3.60224 36.9326 4.66845C36.8006 5.01915 36.59 5.14008 36.2161 5.11287C35.6286 5.06853 35.036 5.06853 34.4465 5.06752C34.0323 5.06651 33.864 5.25194 33.861 5.67621C33.8569 6.30404 33.8721 6.93288 33.8539 7.56072C33.8469 7.79553 33.9114 7.85196 34.1441 7.84994C35.3756 7.83785 36.6071 7.8439 37.8386 7.8439C38.3475 7.8439 38.4644 7.95677 38.4644 8.4546C38.4654 16.3202 38.4654 24.1867 38.4644 32.0523C38.4644 32.536 38.3485 32.6509 37.8688 32.6529C37.4163 32.6549 36.9639 32.666 36.5124 32.6479C36.2746 32.6388 36.1849 32.6932 36.197 32.9512C36.2201 33.4279 36.204 33.9056 36.203 34.3833C36.202 34.8962 36.1012 34.999 35.5893 34.999C32.3352 35 29.0802 34.999 25.8261 34.999C23.6121 35 21.4 35 19.189 35ZM19.2001 31.8286C25.2063 31.8286 31.2136 31.8245 37.2198 31.8376C37.5756 31.8387 37.636 31.7328 37.636 31.4063C37.627 23.967 37.627 16.5278 37.636 9.08949C37.636 8.75995 37.5726 8.65917 37.2188 8.65917C25.2184 8.67026 13.218 8.67026 1.21763 8.65917C0.872971 8.65917 0.819559 8.75592 0.819559 9.07135C0.828629 16.5227 0.828629 23.9741 0.819559 31.4265C0.819559 31.7439 0.875996 31.8387 1.21863 31.8387C7.21178 31.8245 13.2059 31.8286 19.2001 31.8286ZM19.19 34.1656C24.2167 34.1656 29.2424 34.1676 34.2691 34.1626C34.6279 34.1626 35.1066 34.3238 35.3111 34.092C35.4875 33.8925 35.3363 33.4208 35.3726 33.0742C35.4089 32.7255 35.2859 32.6499 34.9473 32.6499C24.7065 32.66 14.4646 32.657 4.22377 32.661C3.85191 32.661 3.35508 32.4967 3.14446 32.7346C2.96206 32.9411 3.11725 33.4299 3.08198 33.7897C3.04973 34.1132 3.16361 34.1726 3.47097 34.1726C8.71032 34.1636 13.9507 34.1656 19.19 34.1656ZM9.42885 6.31613C11.3889 6.31613 13.349 6.31412 15.3101 6.32017C15.5177 6.32117 15.6266 6.30303 15.6205 6.04404C15.6024 5.22776 15.6064 4.41046 15.6185 3.59418C15.6215 3.3765 15.552 3.3251 15.3424 3.3251C11.397 3.33115 7.45062 3.33115 3.50524 3.3251C3.28958 3.3251 3.23113 3.38758 3.23415 3.59921C3.24524 4.39031 3.2533 5.1824 3.23113 5.9735C3.22307 6.26071 3.30469 6.3252 3.58485 6.32319C5.53285 6.31009 7.48085 6.31613 9.42885 6.31613ZM30.3479 5.82334C30.3499 5.82334 30.3509 5.82334 30.353 5.82334C30.353 6.40079 30.363 6.97823 30.3479 7.55568C30.3419 7.78041 30.3933 7.85599 30.6331 7.84994C31.3355 7.8318 32.0389 7.82878 32.7414 7.85095C33.0094 7.85901 33.0417 7.75622 33.0376 7.53049C33.0245 6.90366 33.0296 6.27583 33.0336 5.64799C33.0386 4.78132 33.5808 4.23713 34.4394 4.23007C34.6652 4.22806 34.8919 4.221 35.1166 4.23209C35.2789 4.24015 35.3313 4.18472 35.3303 4.02046C35.3232 3.26766 35.3232 2.51386 35.3293 1.76106C35.3303 1.59176 35.2607 1.54843 35.1045 1.55044C34.3266 1.55951 33.5466 1.52726 32.7706 1.5716C31.391 1.65222 30.3419 2.81518 30.3459 4.20387C30.3489 4.74403 30.3479 5.28318 30.3479 5.82334ZM6.45092 2.49874C6.99108 2.49874 7.53124 2.49068 8.07039 2.50277C8.2669 2.50781 8.3314 2.45339 8.32434 2.25184C8.30923 1.86285 8.31225 1.47284 8.32334 1.08385C8.32838 0.903459 8.30016 0.8178 8.0845 0.819815C7.01728 0.8309 5.95006 0.828883 4.88184 0.820821C4.69238 0.819813 4.61277 0.864154 4.62083 1.06974C4.63594 1.45873 4.63897 1.84874 4.61982 2.23672C4.60874 2.4675 4.70548 2.50479 4.90502 2.50076C5.42099 2.49169 5.93595 2.49874 6.45092 2.49874ZM9.42784 7.84289C9.82893 7.84289 10.23 7.82374 10.6301 7.84894C10.9304 7.86809 10.877 7.67963 10.8659 7.51638C10.8548 7.35816 10.9748 7.13242 10.6331 7.14048C9.83195 7.15963 9.02978 7.15963 8.22962 7.13947C7.92729 7.13141 7.98473 7.31281 7.99481 7.47607C8.00489 7.63328 7.88295 7.86909 8.22659 7.84894C8.62466 7.82576 9.02675 7.84289 9.42784 7.84289ZM36.1466 4.15953C36.1738 4.16759 36.201 4.17465 36.2292 4.18271C36.5668 3.32007 36.9044 2.45742 37.2551 1.55951C36.9256 1.55951 36.6494 1.56858 36.3753 1.55649C36.1899 1.54842 36.1415 1.62098 36.1435 1.79734C36.1506 2.58541 36.1466 3.37247 36.1466 4.15953ZM6.36425 7.84289C6.5396 7.84289 6.71798 7.82475 6.89131 7.84692C7.15333 7.88219 7.1886 7.74514 7.15937 7.54157C7.13519 7.37327 7.27325 7.11529 6.90743 7.14149C6.58294 7.16467 6.2534 7.16265 5.92789 7.14149C5.66789 7.12436 5.58626 7.20296 5.58828 7.47103C5.59029 7.74615 5.63262 7.89932 5.95107 7.84692C6.0851 7.82475 6.22619 7.84289 6.36425 7.84289ZM12.4834 7.84289C12.6849 7.84289 12.8855 7.83886 13.087 7.8439C13.211 7.84692 13.2533 7.8056 13.2674 7.67359C13.3198 7.17474 13.3017 7.14653 12.7978 7.14653C12.5338 7.14653 12.2687 7.16265 12.0067 7.14149C11.7588 7.12133 11.6963 7.20599 11.6882 7.45289C11.6792 7.75118 11.7376 7.90235 12.0692 7.84692C12.2042 7.82475 12.3453 7.84289 12.4834 7.84289Z" fill="white"/>
<path d="M36.4068 20.2479C36.4068 23.4637 36.4068 26.6795 36.4068 29.8952C36.4068 30.4948 36.304 30.5986 35.7114 30.5986C31.4153 30.5986 27.1192 30.5986 22.8232 30.5986C22.2215 30.5986 22.1308 30.5069 22.1308 29.8962C22.1298 29.092 22.1218 28.2878 22.1359 27.4847C22.1399 27.2408 22.1046 27.138 21.8215 27.14C21.1019 27.1471 20.592 26.6573 20.587 26.0033C20.5819 25.3472 21.0888 24.8413 21.7973 24.8343C22.0492 24.8322 22.1379 24.7839 22.1369 24.5087C22.1258 21.6699 22.1258 18.831 22.1369 15.9922C22.1379 15.7231 22.0623 15.6626 21.8023 15.6606C21.0908 15.6556 20.5819 15.1507 20.587 14.4967C20.591 13.8426 21.1039 13.3488 21.8174 13.3549C22.0946 13.3569 22.1409 13.2652 22.1359 13.0152C22.1198 12.1869 22.1278 11.3575 22.1308 10.5281C22.1329 10.0212 22.2528 9.89724 22.7476 9.89724C27.0941 9.89623 31.4405 9.89623 35.787 9.89724C36.2798 9.89724 36.4068 10.0262 36.4068 10.5251C36.4068 13.766 36.4068 17.007 36.4068 20.2479ZM35.5743 20.26C35.5743 17.2075 35.5703 14.155 35.5804 11.1035C35.5814 10.8173 35.5209 10.7216 35.2126 10.7226C31.243 10.7337 27.2744 10.7317 23.3049 10.7246C23.055 10.7246 22.9501 10.771 22.9582 11.0491C22.9774 11.7273 22.9733 12.4056 22.9592 13.0838C22.9542 13.3015 23.0237 13.3498 23.2323 13.3528C23.9932 13.3649 24.4981 13.8295 24.5031 14.4956C24.5081 15.1628 24.0002 15.6505 23.2505 15.6616C23.0177 15.6657 22.9582 15.7271 22.9592 15.9579C22.9673 18.8089 22.9673 21.6608 22.9602 24.5118C22.9592 24.7446 23.0026 24.8544 23.2636 24.8322C23.5608 24.806 23.834 24.9038 24.0678 25.0922C24.4426 25.3936 24.5878 25.8894 24.4386 26.3439C24.2824 26.8195 23.8763 27.1491 23.3694 27.139C23.055 27.133 22.935 27.1904 22.9542 27.5401C22.9894 28.1538 22.9834 28.7716 22.9562 29.3853C22.9421 29.7088 23.0499 29.7743 23.3563 29.7733C27.3006 29.7622 31.244 29.7622 35.1884 29.7733C35.5028 29.7743 35.5824 29.6906 35.5814 29.3792C35.5693 26.3388 35.5743 23.2994 35.5743 20.26ZM22.5581 14.1782C22.3082 14.1782 22.0573 14.1792 21.8073 14.1782C21.5887 14.1772 21.4335 14.2709 21.4244 14.4967C21.4153 14.7244 21.5695 14.8383 21.7842 14.8413C22.2971 14.8494 22.8101 14.8494 23.323 14.8403C23.5195 14.8373 23.6657 14.7264 23.6697 14.5198C23.6737 14.2951 23.5306 14.1822 23.3089 14.1792C23.059 14.1762 22.8081 14.1792 22.5581 14.1782ZM22.5168 26.3167C22.7798 26.3167 23.0419 26.3187 23.3049 26.3157C23.5256 26.3136 23.6707 26.2028 23.6697 25.9781C23.6687 25.7715 23.5246 25.6576 23.327 25.6546C22.802 25.6455 22.276 25.6435 21.7509 25.6566C21.5554 25.6616 21.4163 25.7846 21.4234 25.9932C21.4304 26.1988 21.5625 26.3086 21.766 26.3136C22.0159 26.3207 22.2659 26.3157 22.5168 26.3167Z" fill="white"/>
<path d="M11.0765 11.706C13.8519 11.706 16.6282 11.706 19.4036 11.706C19.9508 11.706 20.0556 11.8138 20.0556 12.3701C20.0556 14.5801 20.0566 16.7912 20.0556 19.0012C20.0556 19.5293 19.9417 19.6492 19.4207 19.6492C13.8448 19.6502 8.26786 19.6502 2.69192 19.6492C2.16789 19.6492 2.053 19.5282 2.053 19.0012C2.05199 16.7781 2.05199 14.5549 2.053 12.3318C2.053 11.836 2.183 11.706 2.6758 11.706C5.47535 11.705 8.27592 11.706 11.0765 11.706ZM11.0735 12.5294C8.46034 12.5294 5.84822 12.5334 3.2351 12.5233C2.95998 12.5223 2.87432 12.5807 2.87634 12.872C2.89045 14.7313 2.89045 16.5896 2.87634 18.4489C2.87432 18.7452 2.95192 18.8258 3.25022 18.8248C8.46336 18.8158 13.6755 18.8158 18.8886 18.8258C19.1758 18.8268 19.2363 18.7523 19.2343 18.4751C19.2212 16.6289 19.2192 14.7827 19.2353 12.9355C19.2383 12.619 19.1819 12.5173 18.8352 12.5203C16.2483 12.5374 13.6604 12.5294 11.0735 12.5294Z" fill="white"/>
<path d="M11.0564 20.8543C13.8318 20.8543 16.6072 20.8543 19.3825 20.8543C19.966 20.8543 20.0537 20.9429 20.0537 21.5335C20.0537 23.7314 20.0537 25.9293 20.0537 28.1273C20.0537 28.6775 19.9428 28.7904 19.3976 28.7904C13.8338 28.7904 8.26997 28.7904 2.70713 28.7904C2.16496 28.7904 2.05007 28.6745 2.05007 28.1242C2.04906 25.9142 2.04906 23.7032 2.05007 21.4932C2.05007 20.9631 2.15891 20.8553 2.69101 20.8553C5.48049 20.8532 8.26795 20.8543 11.0564 20.8543ZM11.0554 27.967C13.6695 27.967 16.2837 27.963 18.8968 27.9731C19.1528 27.9741 19.2354 27.9227 19.2334 27.6496C19.2203 25.7651 19.2223 23.8795 19.2324 21.995C19.2334 21.7542 19.1769 21.6826 18.926 21.6836C13.6857 21.6917 8.44532 21.6917 3.20497 21.6836C2.93186 21.6836 2.87644 21.7733 2.87744 22.0263C2.88752 23.8866 2.89054 25.7459 2.87543 27.6062C2.87341 27.9106 2.96109 27.9761 3.25132 27.9751C5.85336 27.962 8.45439 27.967 11.0554 27.967Z" fill="white"/>
<path d="M30.7085 26.3379C30.5795 26.3429 30.4808 26.2472 30.3971 26.1333C29.09 24.3536 27.781 22.5749 26.4779 20.7912C26.2421 20.4677 26.3036 20.25 26.6664 20.0646C27.2126 19.7854 27.7578 19.5022 28.3171 19.2513C28.5721 19.1374 28.6295 19.0195 28.5479 18.7484C28.1619 17.4787 27.8031 16.2008 27.4242 14.928C27.3496 14.6761 27.3204 14.4503 27.5875 14.3093C27.8606 14.1641 28.0349 14.3274 28.1871 14.533C29.469 16.2694 30.7518 18.0047 32.0317 19.7431C32.3129 20.125 32.2514 20.3498 31.815 20.5685C31.289 20.8325 30.7649 21.0995 30.2298 21.3454C29.988 21.4563 29.9093 21.5631 29.999 21.8503C30.3941 23.1171 30.7569 24.3939 31.1267 25.6687C31.2446 26.0749 31.0773 26.352 30.7085 26.3379ZM29.0054 17.0625C28.9742 17.0897 28.9419 17.1179 28.9107 17.1451C29.0981 17.776 29.2765 18.4098 29.475 19.0367C29.5849 19.3853 29.4921 19.606 29.1555 19.7602C28.6214 20.0051 28.0994 20.2762 27.5724 20.5342C27.4545 20.5916 27.3496 20.6279 27.4756 20.7962C28.1871 21.7465 28.8895 22.7049 29.5939 23.6613C29.4639 22.9901 29.2795 22.3441 29.0931 21.6982C28.9228 21.1086 28.9389 21.0764 29.4881 20.8033C30.0394 20.5292 30.5886 20.251 31.1529 19.9688C30.4183 18.9732 29.7118 18.0178 29.0054 17.0625Z" fill="white"/>
<path d="M5.99113 15.8423C5.50136 15.8423 5.01058 15.8463 4.52081 15.8413C4.1298 15.8372 3.99778 15.7082 3.99375 15.3283C3.98871 14.8889 3.99577 14.4485 3.99174 14.0091C3.98872 13.6786 4.16003 13.5204 4.47647 13.5194C5.48121 13.5153 6.48695 13.5163 7.49169 13.5184C7.80813 13.5194 7.9865 13.6736 7.98851 14.0001C7.99154 14.4526 7.99154 14.905 7.98851 15.3575C7.9865 15.678 7.82425 15.8443 7.49874 15.8433C6.99587 15.8413 6.49401 15.8423 5.99113 15.8423ZM5.95888 15.0159C6.2723 15.0159 6.58874 14.9957 6.90013 15.0219C7.17626 15.0451 7.17223 14.895 7.16114 14.7055C7.15107 14.5281 7.22564 14.3286 6.90316 14.3417C6.31362 14.3649 5.72307 14.3649 5.13353 14.3417C4.85136 14.3306 4.81206 14.4405 4.80903 14.6864C4.80601 14.9363 4.85136 15.0502 5.13051 15.023C5.40361 14.9957 5.68175 15.0159 5.95888 15.0159Z" fill="white"/>
<path d="M10.973 22.6777C13.0469 22.6777 15.1199 22.6777 17.1939 22.6777C17.7784 22.6777 17.8691 22.7704 17.8691 23.3549C17.8691 23.7318 17.865 24.1088 17.8701 24.4857C17.8751 24.8303 17.7008 24.9936 17.3662 25.0036C17.2785 25.0067 17.1898 25.0046 17.1022 25.0046C12.9804 25.0046 8.85768 25.0046 4.73595 25.0046C4.05772 25.0046 3.99121 24.9361 3.99121 24.2448C3.99121 23.9556 3.99121 23.6663 3.99121 23.3781C3.99121 22.7513 4.06075 22.6787 4.67548 22.6787C6.61139 22.6777 8.54629 22.6787 10.4822 22.6787C10.6454 22.6777 10.8097 22.6777 10.973 22.6777ZM10.9397 24.1793C12.8474 24.1793 14.7561 24.1763 16.6638 24.1833C16.9097 24.1843 17.0407 24.1722 17.0467 23.8548C17.0518 23.5192 16.9077 23.5061 16.6497 23.5061C12.8212 23.5111 8.99172 23.5132 5.16324 23.5031C4.88913 23.5021 4.80851 23.5585 4.80548 23.8467C4.80246 24.1531 4.91936 24.1843 5.17735 24.1833C7.09814 24.1753 9.01893 24.1793 10.9397 24.1793Z" fill="white"/>
</svg>
