<svg width="21" height="32" viewBox="0 0 21 32" fill="none" xmlns="http://www.w3.org/2000/svg">
<path d="M9.32801 31.4417C8.95425 31.2448 8.60943 31.0237 8.49932 30.572C8.44707 30.359 8.45431 30.1444 8.46556 29.9314C8.47521 29.749 8.41091 29.6871 8.23247 29.6589C7.067 29.4757 6.22626 28.5698 6.11293 27.4084C6.09605 27.2388 6.11293 27.1753 6.30342 27.1753C9.09732 27.1809 11.892 27.1801 14.6859 27.1753C14.8724 27.1753 14.8957 27.2332 14.8788 27.406C14.7655 28.5666 13.9232 29.4765 12.7609 29.6589C12.5873 29.6863 12.5141 29.7425 12.5254 29.929C12.5383 30.142 12.5487 30.3582 12.4932 30.5696C12.3703 31.039 12.0247 31.2801 11.6011 31.4409C10.8431 31.4417 10.086 31.4417 9.32801 31.4417Z" fill="white"/>
<path d="M10.4752 22.0137C8.96009 22.0137 7.44498 22.0129 5.93068 22.0153C5.78279 22.0153 5.66624 22.0097 5.57461 21.8521C4.48068 19.9641 3.15124 18.2392 1.8837 16.4693C0.47228 14.4992 -0.136173 12.2696 0.0253847 9.84621C0.22472 6.85699 1.48583 4.38861 3.7589 2.45233C5.25391 1.17916 6.99246 0.401111 8.9416 0.119791C11.5908 -0.261999 14.0544 0.266079 16.2816 1.74341C18.5458 3.24485 20.0441 5.33144 20.6782 7.98066C21.4764 11.3115 20.7803 14.3425 18.6937 17.052C17.5202 18.576 16.4207 20.1497 15.4425 21.8071C15.3444 21.9735 15.2319 22.0177 15.0494 22.0169C13.5255 22.0113 12.0007 22.0137 10.4752 22.0137ZM1.65623 9.94025C1.65623 10.1139 1.64659 10.2883 1.65784 10.4619C1.69481 11.0278 2.15537 11.4505 2.7156 11.4433C3.26699 11.4361 3.70022 11.0221 3.74121 10.4643C3.75648 10.2497 3.76211 10.0343 3.78542 9.82129C4.05066 7.3714 5.2732 5.56212 7.43614 4.39102C8.40951 3.86375 9.46887 3.67647 10.5628 3.62503C11.1656 3.5969 11.5659 3.14116 11.5506 2.55602C11.5362 1.98695 11.0845 1.53523 10.4929 1.54407C8.64662 1.5722 6.94021 2.07536 5.43556 3.15804C3.1207 4.82185 1.88209 7.09812 1.65623 9.94025Z" fill="white"/>
<path d="M10.5114 23.5149C11.8007 23.5149 13.0891 23.5109 14.3784 23.5173C14.9008 23.5205 15.3244 23.8758 15.4088 24.3532C15.4964 24.8476 15.2553 25.3146 14.8092 25.5139C14.6476 25.5862 14.478 25.6087 14.302 25.6079C11.7653 25.6063 9.2278 25.6087 6.6911 25.6055C6.02718 25.6047 5.57306 25.1771 5.56984 24.5679C5.56663 23.9425 6.02156 23.5165 6.70637 23.5149C7.97392 23.5125 9.24227 23.5149 10.5114 23.5149Z" fill="white"/>
</svg>
