<svg width="34" height="42" viewBox="0 0 34 42" fill="none" xmlns="http://www.w3.org/2000/svg">
<path d="M3.69657 41.5226C3.45013 41.3046 3.20776 41.0866 3.35582 40.7032C3.50084 40.327 3.8132 40.2986 4.15395 40.2986C5.92463 40.3026 7.69531 40.2905 9.46599 40.3097C9.79863 40.3128 9.87367 40.2114 9.85643 39.9041C9.83108 39.4731 9.84629 39.039 9.85136 38.607C9.85744 38.0634 10.0623 37.8575 10.616 37.8555C12.0084 37.8504 13.4008 37.8464 14.7922 37.8596C15.0671 37.8626 15.1644 37.8008 15.1583 37.5077C15.1391 36.602 15.134 35.6964 15.1604 34.7908C15.1695 34.4561 15.0569 34.3973 14.7507 34.3983C10.1688 34.4075 5.58692 34.4044 1.00505 34.4044C0.178531 34.4044 0.0923323 34.2614 0.0284417 33.4461C-0.136862 31.3296 0.454377 29.3246 0.873215 27.2953C1.65816 23.4913 2.47454 19.6944 3.27976 15.8954C3.39841 15.3336 3.55662 15.2007 4.1367 15.2007C12.7062 15.1987 21.2756 15.1987 29.844 15.2007C30.4332 15.2007 30.5925 15.3305 30.7101 15.8863C31.78 20.9529 32.8672 26.0165 33.9016 31.0902C34.0862 31.9969 33.9594 32.9501 33.933 33.8811C33.9249 34.1793 33.7109 34.3638 33.3996 34.3933C33.2515 34.4064 33.1025 34.4054 32.9544 34.4054C28.3857 34.4064 23.817 34.4095 19.2494 34.3973C18.9056 34.3963 18.8244 34.4947 18.8325 34.8243C18.8549 35.7157 18.8508 36.6081 18.8336 37.5006C18.8285 37.7815 18.9046 37.8646 19.1905 37.8616C20.5688 37.8464 21.948 37.8525 23.3262 37.8555C23.9499 37.8565 24.1375 38.0502 24.1405 38.681C24.1426 39.113 24.1588 39.5471 24.1345 39.9781C24.1182 40.256 24.2207 40.3087 24.4762 40.3077C26.2601 40.2976 28.045 40.3016 29.8288 40.3036C29.9759 40.3036 30.131 40.3026 30.269 40.3442C30.5103 40.4172 30.6472 40.6099 30.6736 40.8533C30.7121 41.1981 30.484 41.3807 30.2132 41.5226C21.376 41.5226 12.5368 41.5226 3.69657 41.5226ZM17.002 33.1824C21.9875 33.1824 26.973 33.1824 31.9595 33.1824C32.7333 33.1824 32.7151 33.1814 32.7404 32.4127C32.7516 32.0618 32.6785 31.9461 32.2932 31.9461C23.9164 31.9593 15.5386 31.9563 7.16187 31.9553C7.01381 31.9553 6.86067 31.9674 6.71768 31.9401C6.41952 31.8823 6.23698 31.6916 6.2167 31.3853C6.1954 31.076 6.35766 30.8651 6.64568 30.7748C6.7836 30.7322 6.93876 30.7373 7.08682 30.7373C8.28959 30.7343 9.49236 30.7343 10.6941 30.7373C10.8685 30.7383 10.9892 30.7444 11.0024 30.4969C11.0663 29.3773 11.1484 28.2598 11.2377 27.1422C11.259 26.8816 11.2265 26.7659 10.9132 26.768C8.13037 26.7812 5.34657 26.7791 2.56277 26.77C2.31532 26.769 2.20985 26.8369 2.16015 27.0824C1.93603 28.206 1.70177 29.3277 1.45432 30.4462C1.40057 30.6906 1.45533 30.7434 1.69365 30.7393C2.47758 30.7272 3.26049 30.7302 4.04442 30.7363C4.49469 30.7393 4.75736 30.9614 4.7675 31.3265C4.77764 31.7149 4.51498 31.9502 4.04543 31.9543C3.3832 31.9603 2.72097 31.9553 2.05976 31.9563C1.26264 31.9563 1.28901 31.9573 1.2525 32.7443C1.23425 33.1398 1.37927 33.1885 1.72205 33.1875C6.81402 33.1793 11.908 33.1824 17.002 33.1824ZM16.9777 30.7363C18.4634 30.7363 19.9491 30.7292 21.4338 30.7424C21.7097 30.7454 21.805 30.6967 21.7786 30.3955C21.6813 29.279 21.6072 28.1614 21.5383 27.0428C21.5251 26.8308 21.4551 26.772 21.2482 26.772C18.4127 26.7781 15.5762 26.7781 12.7406 26.772C12.5297 26.772 12.4668 26.8379 12.4536 27.0458C12.3847 28.1502 12.3147 29.2556 12.2143 30.358C12.1829 30.7008 12.3046 30.7444 12.6027 30.7414C14.061 30.7282 15.5194 30.7363 16.9777 30.7363ZM32.5569 30.7363C32.5599 30.6724 32.57 30.6318 32.5619 30.5943C32.3145 29.4068 32.0579 28.2202 31.8216 27.0306C31.7689 26.7659 31.6137 26.7751 31.4159 26.7751C28.6463 26.7781 25.8767 26.7832 23.1061 26.768C22.7775 26.7659 22.7309 26.8714 22.7552 27.1584C22.8455 28.2212 22.9307 29.2861 22.9824 30.3509C22.9976 30.6673 23.0838 30.7454 23.3951 30.7434C26.0299 30.7302 28.6646 30.7363 31.2993 30.7363C31.7182 30.7363 32.136 30.7363 32.5569 30.7363ZM16.9949 25.553C18.3731 25.553 19.7503 25.554 21.1286 25.551C21.2553 25.551 21.4338 25.6271 21.4125 25.3553C21.3212 24.1971 21.2391 23.039 21.1722 21.8798C21.1559 21.603 21.017 21.5979 20.8071 21.5979C18.2677 21.603 15.7283 21.607 13.1879 21.5928C12.8938 21.5908 12.8278 21.6993 12.8126 21.9569C12.7477 23.0491 12.6818 24.1414 12.5865 25.2305C12.5611 25.5175 12.6473 25.5601 12.9009 25.5581C14.2669 25.548 15.6309 25.553 16.9949 25.553ZM27.042 25.553C28.4192 25.553 29.7964 25.549 31.1736 25.5571C31.4038 25.5581 31.5082 25.5459 31.4433 25.26C31.1867 24.1302 30.9505 22.9964 30.7233 21.8606C30.6827 21.6598 30.6117 21.5969 30.4109 21.5969C27.8188 21.602 25.2267 21.602 22.6345 21.5979C22.451 21.5979 22.3709 21.6314 22.3881 21.8464C22.4763 22.9629 22.5585 24.0805 22.6173 25.1991C22.6335 25.5074 22.7491 25.5622 23.0321 25.5591C24.3687 25.5449 25.7053 25.553 27.042 25.553ZM2.49685 25.5206C2.56074 25.5368 2.58711 25.549 2.61347 25.549C5.43378 25.551 8.25511 25.547 11.0754 25.5591C11.3361 25.5601 11.3513 25.4334 11.3634 25.2458C11.4354 24.1414 11.4993 23.037 11.5947 21.9346C11.619 21.6496 11.5399 21.5918 11.2762 21.5949C10.2509 21.607 9.22462 21.5999 8.19933 21.5999C6.68725 21.5999 5.17619 21.601 3.66412 21.5989C3.47346 21.5989 3.32134 21.5756 3.26658 21.8565C3.0313 23.0725 2.76154 24.2813 2.49685 25.5206ZM16.9757 20.3728C18.218 20.3728 19.4613 20.3647 20.7036 20.3789C20.9785 20.382 21.0768 20.3333 21.0515 20.0311C20.9551 18.9145 20.8801 17.7959 20.8101 16.6773C20.7979 16.4816 20.729 16.4278 20.5424 16.4278C18.1784 16.4329 15.8145 16.4319 13.4505 16.4278C13.266 16.4278 13.195 16.4765 13.1828 16.6753C13.1138 17.7939 13.0388 18.9125 12.9435 20.029C12.9181 20.3272 13.0104 20.382 13.2883 20.3779C14.5174 20.3647 15.7465 20.3728 16.9757 20.3728ZM7.67198 20.3728C8.9143 20.3728 10.1576 20.3728 11.3999 20.3728C11.5602 20.3728 11.7113 20.4073 11.7265 20.1477C11.7944 19.0017 11.8766 17.8568 11.9679 16.7128C11.9871 16.4694 11.8999 16.4268 11.6788 16.4278C9.35545 16.4349 7.03206 16.436 4.70868 16.4268C4.46427 16.4258 4.38821 16.514 4.34359 16.7372C4.12352 17.8345 3.8994 18.9297 3.64789 20.0199C3.5769 20.3272 3.65398 20.3809 3.943 20.3779C5.18633 20.3657 6.42865 20.3728 7.67198 20.3728ZM26.3463 20.3728C27.5896 20.3728 28.8319 20.3647 30.0742 20.3789C30.3623 20.382 30.4089 20.3049 30.3481 20.0361C30.1047 18.9581 29.8714 17.8781 29.6605 16.7929C29.6057 16.511 29.5094 16.4238 29.2193 16.4258C26.9771 16.439 24.7338 16.4431 22.4916 16.4228C22.1052 16.4197 21.9885 16.4938 22.0291 16.9004C22.1346 17.9612 22.2056 19.0271 22.2603 20.0919C22.2755 20.3779 22.4084 20.3769 22.6163 20.3759C23.8606 20.3708 25.103 20.3728 26.3463 20.3728ZM16.9929 40.3016C18.6946 40.3016 20.3953 40.3016 22.0971 40.3016C22.9236 40.3016 22.9053 40.3016 22.9286 39.4599C22.9378 39.1333 22.8364 39.0694 22.5291 39.0705C18.9918 39.0816 15.4534 39.0776 11.9161 39.0776C11.0673 39.0776 11.0835 39.0776 11.0643 39.9386C11.0572 40.2489 11.1464 40.3118 11.4436 40.3097C13.2933 40.2945 15.1431 40.3016 16.9929 40.3016ZM17.6166 36.1284C17.6166 35.8587 17.6166 35.5889 17.6166 35.3192C17.6166 34.3821 17.6166 34.3912 16.6917 34.3983C16.4473 34.4004 16.3652 34.4612 16.3702 34.7147C16.3854 35.4561 16.3753 36.1974 16.3753 36.9387C16.3753 37.8981 16.3753 37.892 17.3408 37.8586C17.5476 37.8515 17.6267 37.7997 17.6207 37.5837C17.6085 37.1 17.6166 36.6142 17.6166 36.1284Z" fill="white"/>
<path d="M17.1591 0C17.6083 0.290043 17.8 1.35692 17.4795 1.78894C17.2078 2.15504 16.6317 2.09419 16.4472 1.67941C16.2453 1.22609 16.4046 0.359004 16.7544 0C16.8883 0 17.0232 0 17.1591 0Z" fill="white"/>
<path d="M16.9857 9.3992C15.3124 9.38703 13.9007 7.96116 13.9301 6.31217C13.9595 4.64493 15.3276 3.28295 16.9867 3.26672C18.6378 3.25151 20.0657 4.67435 20.0636 6.33347C20.0616 7.99868 18.6428 9.41137 16.9857 9.3992ZM16.9786 4.49585C15.9787 4.51107 15.1451 5.35179 15.1522 6.34057C15.1593 7.34659 16.0416 8.20759 17.0334 8.17717C18.0333 8.14573 18.8609 7.28777 18.8375 6.30609C18.8132 5.30311 17.9694 4.48166 16.9786 4.49585Z" fill="white"/>
<path d="M17.628 11.6706C17.6087 11.8562 17.6107 12.0489 17.5641 12.2294C17.4921 12.5104 17.2862 12.6533 16.9972 12.6533C16.7092 12.6533 16.4942 12.5114 16.4303 12.2305C16.3431 11.8461 16.3441 11.4496 16.4303 11.0652C16.4942 10.7813 16.7163 10.6362 16.9962 10.6362C17.2771 10.6362 17.4931 10.7823 17.562 11.0652C17.6097 11.2579 17.6077 11.4648 17.628 11.6706Z" fill="white"/>
<path d="M11.707 5.73394C11.8419 5.73394 11.9778 5.7238 12.1117 5.73597C12.4544 5.76639 12.6694 5.95807 12.6897 6.29882C12.71 6.63855 12.5244 6.86267 12.1806 6.92048C11.847 6.97626 11.5093 6.97829 11.1756 6.91845C10.8308 6.85659 10.6554 6.63044 10.6777 6.28969C10.699 5.96922 10.8937 5.77248 11.2223 5.74205C11.3825 5.72684 11.5458 5.73901 11.707 5.73901C11.707 5.738 11.707 5.73597 11.707 5.73394Z" fill="white"/>
<path d="M22.2389 6.96206C22.1151 6.94888 21.9377 6.94685 21.7683 6.91034C21.4428 6.84138 21.2845 6.6132 21.3038 6.29476C21.3221 5.9966 21.4955 5.78161 21.8068 5.7522C22.1151 5.7238 22.4275 5.72279 22.7368 5.73698C23.0796 5.75321 23.2844 5.95198 23.3199 6.29476C23.3534 6.61421 23.1303 6.8718 22.7753 6.92961C22.6151 6.95597 22.4518 6.94989 22.2389 6.96206Z" fill="white"/>
<path d="M12.9314 1.69077C13.0714 1.68265 13.2073 1.71105 13.3087 1.80638C13.5439 2.02847 13.7863 2.2455 13.9932 2.49295C14.2153 2.75763 14.1879 3.05681 13.9455 3.29411C13.7022 3.53142 13.407 3.54967 13.1434 3.32048C12.9091 3.11765 12.69 2.89556 12.4852 2.66433C12.3199 2.47672 12.3087 2.24347 12.4162 2.02036C12.5176 1.81145 12.6921 1.69482 12.9314 1.69077Z" fill="white"/>
<path d="M20.4492 3.47761C20.224 3.44415 20.0374 3.34882 19.9299 3.13889C19.8214 2.92897 19.8295 2.71701 19.9725 2.5294C20.1855 2.2495 20.4258 1.98886 20.7159 1.79111C21.1043 1.52743 21.6083 1.78705 21.6377 2.24544C21.6631 2.64805 20.8518 3.48877 20.4492 3.47761Z" fill="white"/>
<path d="M13.5264 9.19239C13.9585 9.19036 14.281 9.6741 14.068 10.0524C13.8682 10.4063 13.568 10.6974 13.2222 10.9073C12.8419 11.1375 12.3653 10.8393 12.3541 10.3982C12.344 10.0118 13.138 9.19442 13.5264 9.19239Z" fill="white"/>
<path d="M21.6395 10.3605C21.6527 10.822 21.1649 11.1455 20.7684 10.9051C20.4236 10.6952 20.1224 10.4052 19.9246 10.0502C19.7117 9.66992 20.0352 9.19226 20.4702 9.19631C20.8394 9.19936 21.6284 9.98633 21.6395 10.3605Z" fill="white"/>
</svg>
