<svg width="28" height="30" viewBox="0 0 28 30" fill="none" xmlns="http://www.w3.org/2000/svg">
<path d="M21.225 0.000521171C21.225 2.13315 21.2282 4.26579 21.2198 6.39842C21.2188 6.61137 21.262 6.67281 21.4859 6.67072C22.7907 6.65823 24.0954 6.67333 25.4002 6.65771C25.6829 6.65458 25.7694 6.70717 25.7689 7.01436C25.7584 13.948 25.7626 20.8817 25.7538 27.8153C25.7532 28.1033 25.8115 28.1975 26.1115 28.1767C26.5379 28.1465 26.9679 28.1777 27.3964 28.1647C27.5683 28.1595 27.6052 28.2183 27.6011 28.3782C27.5906 28.816 27.586 29.255 27.6026 29.6923C27.6104 29.8923 27.5412 29.9277 27.359 29.9266C26.2781 29.9183 25.1972 29.9225 24.1163 29.9225C16.1897 29.9225 8.26315 29.9214 0.336071 29.9282C0.0825083 29.9282 -0.0169384 29.8829 0.00232611 29.6054C0.0299212 29.2081 0.0184665 28.8072 0.00544996 28.4084C-0.000797989 28.2256 0.0392933 28.1569 0.239228 28.1642C0.686476 28.1808 1.13529 28.1558 1.58254 28.1751C1.80434 28.185 1.85172 28.1204 1.8512 27.9038C1.84391 24.33 1.84599 20.7557 1.84599 17.1819C1.84599 14.9227 1.84911 12.663 1.84078 10.4039C1.83974 10.1789 1.89077 10.1097 2.12663 10.1118C3.45067 10.1243 4.77524 10.1123 6.0998 10.1227C6.32056 10.1243 6.38929 10.0779 6.38773 9.8426C6.37679 8.04111 6.38564 6.23962 6.37627 4.4376C6.37523 4.22934 6.43198 4.14291 6.63712 4.08564C11.4241 2.7491 16.2095 1.40527 20.9949 0.0630005C21.0386 0.0510252 21.0949 0.0650828 21.1079 0C21.1469 0.000520662 21.186 0.000521171 21.225 0.000521171ZM19.4709 2.32996C19.3923 2.34662 19.3356 2.35495 19.2809 2.37005C15.6347 3.39107 11.9895 4.41469 8.34125 5.42894C8.15329 5.48101 8.13247 5.57317 8.13299 5.73509C8.13767 7.1086 8.14132 8.48159 8.12986 9.85509C8.12778 10.0759 8.18453 10.1258 8.40113 10.1238C9.7158 10.1128 11.031 10.1279 12.3451 10.1107C12.6435 10.1071 12.7278 10.1758 12.7273 10.4856C12.7169 16.2806 12.7216 22.0756 12.7138 27.8705C12.7133 28.11 12.7653 28.1767 13.0126 28.1751C15.0385 28.1642 17.0639 28.1626 19.0898 28.1762C19.3772 28.1782 19.4553 28.1184 19.4553 27.8179C19.4532 19.4223 19.4631 11.0271 19.4709 2.63143C19.4709 2.53615 19.4709 2.44086 19.4709 2.32996ZM10.9654 20.0158C10.9654 17.3964 10.9628 14.7769 10.9701 12.158C10.9706 11.9357 10.9222 11.8643 10.6853 11.8654C8.42612 11.8753 6.16749 11.8768 3.90833 11.8638C3.64071 11.8622 3.59333 11.9388 3.59385 12.1877C3.60114 17.4167 3.60114 22.6457 3.59333 27.8747C3.59281 28.121 3.65581 28.1762 3.89688 28.1751C6.15603 28.1652 8.41466 28.1647 10.6738 28.1756C10.9206 28.1767 10.9722 28.1137 10.9711 27.8736C10.9623 25.2547 10.9654 22.6353 10.9654 20.0158ZM21.2245 18.268C21.2245 21.4716 21.2261 24.6752 21.2209 27.8789C21.2204 28.0814 21.2354 28.1834 21.4906 28.1767C22.2497 28.1558 23.0093 28.1621 23.769 28.1741C23.9627 28.1772 24.0111 28.1225 24.0106 27.932C24.0059 21.5049 24.0054 15.0784 24.0111 8.65132C24.0111 8.45295 23.9491 8.4113 23.7638 8.4139C23.014 8.42379 22.2638 8.43056 21.5145 8.4113C21.2636 8.40505 21.2183 8.4795 21.2193 8.71536C21.2271 11.8997 21.2245 15.0836 21.2245 18.268Z" fill="white"/>
<path d="M16.6411 9.98729C16.6411 10.4929 16.6354 10.9989 16.6442 11.504C16.6474 11.6742 16.6099 11.7456 16.4198 11.7393C15.983 11.7247 15.5446 11.7247 15.1072 11.7393C14.9193 11.7456 14.8818 11.6779 14.8828 11.5061C14.8896 10.4752 14.8886 9.44476 14.8834 8.41385C14.8823 8.25869 14.9136 8.1884 15.0901 8.19309C15.5368 8.20559 15.9846 8.20454 16.4318 8.19361C16.6036 8.18944 16.6458 8.25192 16.6432 8.41177C16.6364 8.93712 16.6411 9.46246 16.6411 9.98729Z" fill="white"/>
<path d="M14.8872 16.4188C14.8872 15.9028 14.8956 15.3863 14.8831 14.8704C14.8784 14.685 14.9393 14.6392 15.1158 14.6439C15.5537 14.6558 15.9921 14.6543 16.4305 14.6444C16.5971 14.6407 16.646 14.6939 16.645 14.8594C16.6382 15.8919 16.6367 16.9239 16.646 17.9563C16.6476 18.1453 16.5835 18.1823 16.4117 18.1776C15.9738 18.1662 15.5355 18.1667 15.0971 18.1776C14.932 18.1818 14.8805 18.1344 14.8836 17.9673C14.8935 17.4513 14.8872 16.9353 14.8872 16.4188Z" fill="white"/>
<path d="M16.6415 22.8804C16.6415 23.3865 16.6358 23.8926 16.6451 24.3986C16.6483 24.5616 16.6045 24.6178 16.4348 24.6137C15.9876 24.6022 15.5393 24.6017 15.092 24.6137C14.9192 24.6184 14.8837 24.5564 14.8848 24.3971C14.891 23.3651 14.891 22.3337 14.8848 21.3017C14.8837 21.1409 14.9223 21.082 15.0936 21.0862C15.5408 21.0976 15.9891 21.0976 16.4364 21.0862C16.6087 21.0815 16.6477 21.1424 16.6451 21.3028C16.6363 21.8292 16.6415 22.3545 16.6415 22.8804Z" fill="white"/>
<path d="M6.40576 16.3948C6.40576 15.8882 6.41305 15.3816 6.4016 14.8755C6.39743 14.6964 6.44898 14.6392 6.63121 14.6444C7.06909 14.6569 7.50748 14.6548 7.94588 14.6449C8.10729 14.6412 8.16508 14.6839 8.16404 14.8552C8.15675 15.8971 8.15779 16.9394 8.16352 17.9813C8.16456 18.1338 8.1203 18.1807 7.96619 18.1776C7.50853 18.1677 7.05086 18.1672 6.5932 18.1776C6.42919 18.1812 6.4016 18.1156 6.40316 17.9724C6.40993 17.4466 6.40576 16.9207 6.40576 16.3948Z" fill="white"/>
<path d="M6.40563 22.8216C6.40563 22.3155 6.41136 21.8089 6.40251 21.3028C6.39938 21.1414 6.44051 21.082 6.61181 21.0862C7.05906 21.0976 7.50735 21.0976 7.95512 21.0862C8.12642 21.0815 8.16443 21.1409 8.16338 21.3017C8.15714 22.3337 8.15714 23.3656 8.16338 24.3971C8.16443 24.5564 8.1285 24.6178 7.95616 24.6132C7.50891 24.6012 7.06062 24.6017 6.61285 24.6132C6.44312 24.6173 6.39938 24.5611 6.40251 24.3981C6.41136 23.8733 6.40563 23.3474 6.40563 22.8216Z" fill="white"/>
</svg>
