<svg width="29" height="32" viewBox="0 0 29 32" fill="none" xmlns="http://www.w3.org/2000/svg">
<path d="M13.8707 32.0065C13.4173 31.8253 12.941 31.7067 12.5193 31.4419C11.3928 30.7339 10.6261 29.7132 9.98745 28.5773C9.53539 27.7736 9.17361 26.9287 8.88122 26.0556C8.81182 25.8488 8.72693 25.7767 8.51135 25.8252C7.30742 26.0947 6.0853 26.1951 4.85712 26.1236C3.50026 26.0448 2.19932 25.7524 1.16382 24.7863C0.212531 23.899 -0.122304 22.7807 0.0387139 21.5067C0.277883 19.6122 1.27565 18.0849 2.41625 16.6283C2.48026 16.5461 2.54493 16.4653 2.61096 16.3844C2.77534 16.185 3.06975 15.9856 3.06975 15.7868C3.06975 15.5847 2.77736 15.384 2.61702 15.1798C1.67382 13.9833 0.85795 12.7134 0.469891 11.2204C0.114169 9.8494 0.198383 8.53903 1.16382 7.40584C1.87593 6.57043 2.83463 6.17294 3.87889 5.94994C5.45336 5.61376 7.02244 5.76197 8.58478 6.03685C8.81654 6.07795 8.86774 6.00518 8.92905 5.83137C9.40739 4.46575 10.0171 3.1675 10.9253 2.02959C11.6165 1.1632 12.427 0.441649 13.5265 0.140498C14.8961 -0.234761 16.0846 0.165427 17.1335 1.0581C18.2506 2.00871 18.9708 3.24093 19.5589 4.56007C19.7482 4.98451 19.9119 5.4204 20.0703 5.85697C20.1349 6.03415 20.1989 6.07929 20.4038 6.04224C21.9654 5.75793 23.5338 5.61713 25.1083 5.95061C26.2967 6.20191 27.3545 6.68159 28.0693 7.72383C28.8137 8.80918 28.8393 9.99964 28.5227 11.2164C28.109 12.8043 27.2204 14.1389 26.2024 15.3968C25.8736 15.803 25.8743 15.7949 26.2145 16.1944C27.2359 17.3937 28.1292 18.6737 28.6487 20.1788C29.026 21.2722 29.1695 22.3832 28.7228 23.4914C28.2229 24.7331 27.2332 25.4277 25.9996 25.8077C24.7896 26.1802 23.5453 26.1917 22.2955 26.09C21.6744 26.0394 21.0579 25.9599 20.4502 25.8205C20.24 25.772 20.1754 25.8724 20.1114 26.0549C19.6189 27.4704 19.0018 28.8246 18.0559 30.0029C17.3417 30.8929 16.5009 31.6124 15.3623 31.9149C15.2411 31.9472 15.0915 31.8778 14.9958 32.0065C14.6206 32.0065 14.246 32.0065 13.8707 32.0065ZM19.7449 16.0139C19.757 15.0242 19.6822 14.0386 19.6263 13.0516C19.6175 12.8953 19.5333 12.84 19.4296 12.77C17.9346 11.7553 16.3669 10.8681 14.7405 10.0818C14.5781 10.0037 14.4434 9.99088 14.275 10.0724C12.6304 10.866 11.0445 11.7614 9.53405 12.7895C9.41749 12.869 9.37168 12.9444 9.36562 13.0859C9.34204 13.6471 9.29555 14.207 9.26995 14.7682C9.21134 16.0482 9.24974 17.327 9.3481 18.605C9.35955 18.7532 9.40941 18.8509 9.53337 18.9351C11.06 19.9747 12.6453 20.9118 14.3087 21.7169C14.4448 21.7829 14.5451 21.7843 14.6819 21.7182C16.3473 20.9152 17.9326 19.9747 19.4599 18.9344C19.5838 18.8496 19.6324 18.7512 19.6425 18.603C19.7031 17.7399 19.7543 16.8783 19.7449 16.0139ZM23.3829 24.2615C24.0944 24.2561 24.7674 24.2063 25.4162 24.0035C26.1526 23.7737 26.7973 23.4194 27.0196 22.5988C27.1773 22.0167 27.0803 21.4474 26.895 20.8902C26.4382 19.5165 25.586 18.386 24.6717 17.2933C24.5397 17.1356 24.4811 17.2643 24.409 17.3344C23.5197 18.1961 22.5704 18.9877 21.5814 19.7314C21.4972 19.7948 21.4399 19.8547 21.4265 19.9767C21.2877 21.2534 21.0822 22.5193 20.781 23.7677C20.7339 23.9637 20.8161 23.9819 20.9461 24.0035C21.764 24.1389 22.5859 24.2467 23.3829 24.2615ZM5.49176 24.2608C6.40127 24.2541 7.23264 24.1321 8.06265 24.0014C8.21424 23.9779 8.24658 23.9253 8.20683 23.7522C7.94812 22.6224 7.7359 21.4844 7.60655 20.3311C7.58499 20.1363 7.64765 19.8999 7.42667 19.7368C6.42351 18.9944 5.46683 18.194 4.57551 17.3195C4.463 17.2091 4.39697 17.1848 4.29187 17.331C4.14029 17.5412 3.95838 17.7292 3.79871 17.934C3.04618 18.9028 2.36707 19.914 2.02954 21.1132C1.60375 22.6264 2.14003 23.5851 3.65252 24.0223C4.2757 24.2029 4.91371 24.2561 5.49176 24.2608ZM14.4778 30.1309C15.0922 30.1262 15.8131 29.7166 16.3729 29.0698C17.2548 28.0518 17.8052 26.854 18.2681 25.6056C18.3476 25.3906 18.3577 25.3125 18.099 25.237C16.9489 24.9015 15.8306 24.4744 14.7331 23.9934C14.5539 23.9145 14.4158 23.9233 14.244 23.9988C13.3749 24.3794 12.4903 24.7216 11.5895 25.0228C11.2695 25.1299 10.771 25.1259 10.6794 25.3725C10.5898 25.6123 10.8667 25.9956 10.998 26.3096C11.4562 27.4051 11.9945 28.4534 12.846 29.3043C13.3035 29.7617 13.833 30.0918 14.4778 30.1309ZM18.2883 6.49228C18.2627 6.4047 18.2519 6.35349 18.233 6.30566C17.9952 5.68921 17.7466 5.07748 17.4273 4.49809C16.9591 3.64853 16.4376 2.8367 15.6143 2.27752C14.8645 1.76887 14.1449 1.77021 13.387 2.27213C13.0993 2.46212 12.8454 2.69051 12.619 2.95056C11.7465 3.94968 11.2049 5.13003 10.7427 6.35552C10.6861 6.50508 10.7306 6.54146 10.87 6.58121C12.0517 6.91874 13.2024 7.34251 14.3322 7.82489C14.4259 7.86464 14.5061 7.8963 14.6226 7.84645C15.7706 7.35261 16.9402 6.91874 18.1428 6.57582C18.2101 6.55494 18.2789 6.54281 18.2883 6.49228ZM8.29172 7.90439C8.02425 7.86059 7.7898 7.81411 7.554 7.78447C6.41609 7.64231 5.27482 7.5581 4.145 7.82691C2.94849 8.11122 2.08074 8.70611 2.18517 10.1243C2.20605 10.4039 2.27073 10.6754 2.35494 10.9428C2.73761 12.1629 3.45512 13.1856 4.23595 14.176C4.40304 14.3882 4.48725 14.4219 4.69543 14.2205C5.48098 13.4605 6.32514 12.7666 7.2131 12.1286C7.47181 11.9426 7.66583 11.756 7.64225 11.4016C7.62945 11.2096 7.69278 11.0122 7.72108 10.8175C7.86256 9.84401 8.05726 8.8806 8.29172 7.90439ZM20.7143 7.90506C20.7244 7.97108 20.7292 8.03239 20.7433 8.09168C21.0067 9.16895 21.1933 10.2597 21.3517 11.3565C21.3827 11.5714 21.3301 11.7985 21.5686 11.9689C22.5596 12.677 23.5001 13.4491 24.3807 14.2912C24.5175 14.4219 24.5855 14.4024 24.6872 14.2595C24.8685 14.0062 25.0773 13.7724 25.2585 13.5191C25.9491 12.5537 26.5568 11.5499 26.7798 10.356C26.9657 9.36163 26.5824 8.56126 25.6783 8.11593C25.1595 7.86059 24.6044 7.75078 24.0344 7.69553C22.9181 7.58639 21.8165 7.71103 20.7143 7.90506ZM9.66407 21.2911C9.753 22.0066 9.90189 22.6567 10.0461 23.3095C10.0838 23.4813 10.1229 23.5029 10.2825 23.453C10.9219 23.2543 11.5559 23.0427 12.2181 22.7847C11.3504 22.3084 10.5197 21.8307 9.66407 21.2911ZM19.3292 21.2897C18.4668 21.8381 17.6368 22.3077 16.7765 22.7874C17.4468 23.0421 18.0781 23.2684 18.7235 23.4503C18.803 23.4726 18.898 23.5548 18.9324 23.3884C19.0732 22.7113 19.2382 22.0389 19.3292 21.2897ZM21.6306 17.2771C22.1682 16.8426 22.6412 16.4073 23.1054 15.962C23.1734 15.8967 23.292 15.8455 23.1552 15.7222C22.6668 15.2816 22.1857 14.8315 21.6306 14.4078C21.6306 15.3786 21.6306 16.3049 21.6306 17.2771ZM7.35323 17.2643C7.35323 16.2962 7.35323 15.3698 7.35323 14.3774C6.82167 14.8511 6.33794 15.2863 5.84815 15.7148C5.7471 15.8037 5.77068 15.8556 5.85422 15.9337C6.33592 16.3844 6.81291 16.8405 7.35323 17.2643ZM10.139 8.33758C9.97533 9.00726 9.81161 9.67626 9.71999 10.389C10.5392 9.92082 11.3295 9.46808 12.1561 8.9958C11.4669 8.73979 10.8154 8.52218 10.139 8.33758ZM16.8162 9.00456C17.6793 9.45932 18.4635 9.91273 19.2739 10.4052C19.1789 9.67626 19.0186 9.00658 18.8502 8.33893C18.1765 8.52824 17.5223 8.73642 16.8162 9.00456Z" fill="white"/>
<path d="M14.3301 18.9024C12.7704 18.8417 11.5031 17.4492 11.5961 15.8343C11.6864 14.2618 13.079 13.0141 14.677 13.1091C16.2319 13.2014 17.4931 14.5852 17.3934 16.1974C17.3005 17.7092 15.9631 19.0162 14.3301 18.9024Z" fill="white"/>
</svg>
