<svg width="19" height="22" viewBox="0 0 19 22" fill="none" xmlns="http://www.w3.org/2000/svg">
<path d="M18.8479 13.9935C18.8479 14.3233 18.8479 14.6528 18.8479 14.9826C18.8479 15.3135 18.8479 15.6441 18.8479 15.975C18.8479 16.3048 18.8479 16.6343 18.8479 16.9641C18.8479 17.295 18.8483 17.6259 18.8483 17.9564C18.8479 18.2863 18.8479 18.6157 18.8476 18.9455C18.8476 19.2764 18.8476 19.607 18.8476 19.9379C18.8476 20.2677 18.8479 20.5972 18.8479 20.927C18.8125 21.1688 18.8905 21.4364 18.6866 21.6399C18.2623 21.7938 17.8202 21.6675 17.3895 21.7226C17.1251 21.7226 16.8611 21.7226 16.5968 21.7229C16.2229 21.7229 15.8491 21.7229 15.4753 21.7226C15.1891 21.7226 14.9029 21.7229 14.6164 21.7229C14.2647 21.7229 13.9127 21.7229 13.5611 21.7229C13.2527 21.7229 12.9444 21.7229 12.6364 21.7229C12.2407 21.7229 11.8447 21.7229 11.4491 21.7229C11.1847 21.7229 10.9203 21.7226 10.6563 21.7226C10.2603 21.7226 9.86469 21.7226 9.46868 21.7222C9.20432 21.7222 8.94032 21.7222 8.67596 21.7226C8.30213 21.7226 7.92831 21.7226 7.55448 21.7222C7.2683 21.7222 6.98176 21.7226 6.69558 21.7226C6.34393 21.7226 5.99193 21.7226 5.64029 21.7226C5.33192 21.7226 5.02356 21.7226 4.7152 21.7226C4.31956 21.7226 3.92355 21.7226 3.52791 21.7226C3.26355 21.7226 2.99919 21.7222 2.73518 21.7222C2.33918 21.7222 1.94353 21.7222 1.54753 21.7219C1.28317 21.7219 1.01916 21.7219 0.754804 21.7222C0.667161 21.7186 0.57916 21.7158 0.491517 21.7115C0.138798 21.694 0.0175287 21.577 0.0168132 21.2228C0.0135937 19.451 0.0150245 17.6792 0.0139513 15.907C0.0121627 13.3868 0.0100161 10.8663 0.00751197 8.34609C0.00715424 7.91717 0.00250409 7.48861 0 7.0597C0.0132359 6.97241 0.0268294 6.88513 0.0400653 6.79784C0.168132 6.79462 0.296198 6.7914 0.424265 6.78782C0.490802 6.78747 0.557339 6.78747 0.623518 6.78711C1.06317 6.78747 1.50281 6.78783 1.94246 6.78854C2.141 6.78854 2.33918 6.7889 2.53772 6.7889C3.14335 6.81931 3.14371 6.81931 3.14299 7.43245C3.14192 9.05009 3.14049 10.6677 3.13906 12.2854C3.13906 12.3934 3.13906 12.5011 3.13906 12.71C3.76758 12.2539 4.33637 11.8411 4.90516 11.4283C4.98564 11.3975 5.06649 11.3667 5.10835 11.282C5.37342 11.1113 5.64708 10.9532 5.87173 10.7264V10.7232C5.96117 10.7099 6.02448 10.6638 6.05596 10.5772L6.05775 10.5847C6.15112 10.5772 6.20979 10.5218 6.25164 10.4434L6.25486 10.4513C6.34465 10.437 6.4094 10.3898 6.44803 10.3071V10.3147C6.56215 10.2903 6.63298 10.2002 6.72062 10.1354C6.80147 10.1197 6.85727 10.07 6.90127 10.0038C6.96996 9.95407 7.03864 9.90434 7.10732 9.85462C7.26938 9.76698 7.42999 9.67683 7.54983 9.53088C7.64964 9.46863 7.75696 9.41605 7.8471 9.342C8.09501 9.13845 8.34148 9.09695 8.59976 9.31803L8.5994 9.31624C8.68884 10.4252 8.61014 11.537 8.64698 12.71C9.81317 11.8672 10.9422 11.0512 12.0711 10.2352C12.088 10.2238 12.1048 10.2127 12.1216 10.2013C12.2879 10.0514 12.5305 10.0031 12.6557 9.79917C12.7294 9.81098 12.7598 9.76984 12.7705 9.70473C12.8936 9.67289 12.9959 9.60886 13.0717 9.50548C13.2538 9.42356 13.4116 9.30515 13.5622 9.17601C14.0068 9.16206 14.1234 9.27081 14.1338 9.70724C14.1363 9.81491 14.1417 9.92223 14.146 10.0299C14.146 10.0939 14.1463 10.158 14.1463 10.222C14.1463 10.4456 14.146 10.6688 14.146 10.8924C14.146 10.9342 14.1463 10.9761 14.1463 11.0176C14.1463 11.3488 14.1467 11.6801 14.1467 12.0114C14.1231 12.1205 14.117 12.2296 14.1474 12.3387C14.1474 12.4081 14.0937 12.5172 14.1925 12.5293C14.2901 12.5412 14.3524 12.4392 14.3971 12.3505C14.4958 12.3204 14.6321 12.3541 14.6561 12.1974C14.7702 12.1441 14.885 12.0922 14.9147 11.9505C15.7353 11.298 16.5535 10.6423 17.3301 9.9369C17.3966 9.88109 17.4632 9.82493 17.5301 9.76912L17.529 9.7727C17.7057 9.63354 17.8953 9.50798 18.0552 9.35166C18.2276 9.18352 18.4122 9.12879 18.6387 9.19104C18.913 9.41927 18.8079 9.74265 18.8486 10.0295C18.8483 10.3594 18.8479 10.6888 18.8479 11.0187C18.8479 11.3496 18.8479 11.6801 18.8479 12.011C18.8479 12.3408 18.8483 12.6703 18.8483 13.0001C18.8483 13.3321 18.8479 13.6626 18.8479 13.9935ZM8.78578 19.2314C8.83372 19.3541 8.93102 19.3348 9.02796 19.3161C9.21648 19.387 9.40966 19.3426 9.60104 19.338C9.95269 19.3369 10.304 19.3362 10.6556 19.3351C10.9211 19.3562 11.1861 19.3684 11.4508 19.3272C11.5177 19.3254 11.5761 19.3086 11.6043 19.2392L11.61 19.2403C11.7707 19.1834 11.766 19.0432 11.7664 18.913C11.7696 17.9046 11.7696 16.8958 11.7703 15.887C11.7703 15.6988 11.7188 15.54 11.5185 15.4731C11.233 15.399 10.9443 15.4395 10.6567 15.4488C10.2829 15.4488 9.90904 15.4488 9.53558 15.4488C9.35922 15.4495 9.18286 15.4498 9.00614 15.4505C8.70243 15.4709 8.6341 15.6766 8.63375 15.9306C8.63232 16.8961 8.63053 17.862 8.6341 18.8275C8.63446 18.9759 8.61658 19.1405 8.7797 19.2353L8.78578 19.2314ZM14.146 16.8382C14.1463 16.88 14.1463 16.9219 14.1467 16.9637C14.1467 17.295 14.1463 17.6262 14.1463 17.9575C14.1463 18.0215 14.1467 18.0856 14.1467 18.1496C14.1463 18.351 14.1463 18.5524 14.146 18.7538C14.1467 18.7957 14.147 18.8375 14.1478 18.8794C14.1041 19.1888 14.2358 19.3441 14.5506 19.338C14.8811 19.3376 15.2116 19.3376 15.5422 19.3373C15.8716 19.338 16.2015 19.339 16.5309 19.3398C17.0951 19.3691 17.1748 19.3251 17.246 18.9452C17.2464 18.6157 17.2467 18.2866 17.2471 17.9571C17.2467 17.6259 17.2467 17.295 17.2464 16.9637C17.2464 16.6343 17.246 16.3052 17.246 15.9757C17.2568 15.5006 17.1341 15.4105 16.5309 15.4491C16.2011 15.4491 15.8713 15.4491 15.5418 15.4491C15.2113 15.4495 14.8811 15.4498 14.5506 15.4502C14.186 15.4931 14.1263 15.5711 14.147 15.9757C14.147 16.0179 14.1467 16.0598 14.1467 16.102C14.1463 16.3474 14.1463 16.5928 14.146 16.8382ZM3.59444 19.3355C3.96791 19.3355 4.34138 19.3355 4.71449 19.3355C5.02321 19.3358 5.33192 19.3362 5.64029 19.3365C6.17509 19.3677 6.27847 19.2711 6.27883 18.7366C6.27954 17.8509 6.27668 16.9648 6.28133 16.0791C6.28455 15.5232 6.19154 15.4269 5.63957 15.4491C5.30939 15.4491 4.97885 15.4491 4.64866 15.4491C4.31884 15.4491 3.98902 15.4491 3.65955 15.4491C3.56618 15.4337 3.47246 15.4169 3.39125 15.4878C3.16267 15.5546 3.14478 15.7378 3.14478 15.932C3.14406 16.8954 3.14156 17.8591 3.14192 18.8225C3.14192 18.9627 3.13369 19.109 3.26355 19.2103C3.34117 19.339 3.45958 19.3591 3.59444 19.3355Z" fill="white"/>
<path d="M11.415 1.31429C11.6382 1.59046 11.8857 1.61478 12.1934 1.43413C12.7171 1.12684 13.1775 0.73978 13.6175 0.329467C13.7996 0.159904 13.9799 0.0268296 14.2299 0.00393502C14.431 0.144164 14.568 0.312654 14.4878 0.57916C13.9452 1.14151 13.3524 1.64304 12.6999 2.07374C12.5407 2.10451 12.3851 2.1435 12.2721 2.27336C12.256 2.26406 12.2406 2.26477 12.2256 2.27622C12.1408 2.30484 12.0557 2.33345 11.9709 2.36207C11.5548 2.43004 11.254 2.1714 10.9252 1.99218C10.9217 1.96822 10.9074 1.95713 10.8834 1.95856C10.8086 1.89309 10.7342 1.82727 10.6595 1.76181C10.6344 1.69598 10.5861 1.65413 10.5217 1.62873C10.3604 1.45845 10.2141 1.27244 10.0055 1.15403L10.0062 1.15868C9.944 1.04886 9.84169 0.98697 9.7333 0.933311C9.50435 0.700788 9.30689 0.775195 9.12409 0.995555C9.05862 1.02739 8.98565 1.05064 8.9717 1.13757L8.96705 1.139C8.76457 1.22987 8.63901 1.40801 8.48877 1.55862C8.43976 1.60405 8.39075 1.64912 8.34174 1.69455C8.29559 1.73784 8.24945 1.78077 8.20294 1.82405C8.11744 1.8566 8.04769 1.90633 8.01513 1.99683C7.69819 2.15924 7.40592 2.38783 7.02065 2.36601C6.85717 2.31879 6.69369 2.27193 6.52985 2.22471C6.4533 2.16854 6.37674 2.11238 6.30019 2.05586C6.29375 2.03153 6.27801 2.02044 6.25261 2.02295C6.01329 1.81725 5.77397 1.61156 5.53465 1.40587H5.52893C5.49352 1.29712 5.39872 1.2499 5.31072 1.19552C5.31251 1.17442 5.30285 1.16333 5.28138 1.16226C4.73227 0.650348 4.61637 0.656072 3.89626 1.23094C3.84475 1.2338 3.80612 1.25526 3.78644 1.30535C3.72133 1.32538 3.66446 1.35614 3.63763 1.42447L3.6319 1.42054C3.36146 1.58151 3.12965 1.79007 2.90643 2.00864C2.71469 2.20145 2.53225 2.41359 2.21316 2.33918C1.90623 2.10201 1.89156 1.99934 2.10906 1.60655C2.10906 1.60655 2.10942 1.60441 2.10906 1.60405C2.15413 1.57829 2.20636 1.56005 2.24392 1.52571C2.82344 0.996986 3.43658 0.515127 4.12628 0.135936C4.23467 0.0976596 4.34271 0.0593831 4.4511 0.0211063C4.47363 0.0139518 4.49581 0.00715454 4.51835 0C4.66466 0.00429273 4.81097 0.00822794 4.95764 0.0125207C5.39621 0.182441 5.73605 0.489013 6.08198 0.795943C6.39427 1.07282 6.63467 1.45309 7.08361 1.55075C7.32615 1.48314 7.51074 1.31679 7.70212 1.16905C8.12675 0.841375 8.47517 0.421761 8.93092 0.129498C9.30832 -0.0558051 9.68036 -0.0357727 10.047 0.160977C10.1586 0.236815 10.2699 0.313012 10.3815 0.38885C10.447 0.44394 10.5121 0.498672 10.5775 0.553762C10.5754 0.573795 10.5847 0.584884 10.6051 0.587388C10.6899 0.73656 10.8086 0.849602 10.9635 0.923652L10.9675 0.918286C11.083 1.02274 11.1424 1.18837 11.3116 1.23452C11.3273 1.28531 11.3645 1.30857 11.415 1.31429Z" fill="white"/>
<path d="M2.53261 3.8027C3.08924 3.85457 3.13753 3.90071 3.13073 4.47308C3.12716 4.76605 3.26023 5.1549 3.06992 5.32447C2.90715 5.46935 2.52725 5.37562 2.24321 5.3767C1.58392 5.3792 0.924986 5.36954 0.265695 5.37813C0.0728801 5.38063 -0.0101124 5.3377 0.000977153 5.12414C0.0199367 4.76248 0.00956237 4.39938 0.011351 4.03665C0.106506 3.93255 0.207028 3.83668 0.352981 3.80913C0.794058 3.80591 1.23549 3.8027 1.67657 3.79948C1.71413 3.7984 1.75134 3.79733 1.7889 3.79626C1.84148 3.79626 1.89443 3.7959 1.94701 3.7959C2.14197 3.84169 2.33729 3.83096 2.53261 3.8027Z" fill="white"/>
<path d="M10.9964 17.8898C10.9678 18.5652 10.9678 18.5652 10.2874 18.5699C10.233 18.5702 10.1786 18.5699 10.1243 18.5702C9.43564 18.5709 9.43564 18.5709 9.39844 17.8891C9.39844 17.5804 9.3988 17.272 9.3988 16.9633C9.43636 16.2153 9.43636 16.2124 10.1654 16.2174C10.4265 16.2192 10.7617 16.1434 10.9281 16.2747C11.1087 16.4171 10.9553 16.7701 10.9957 17.0284C10.9957 17.3157 10.996 17.6029 10.9964 17.8898Z" fill="white"/>
<path d="M3.91314 18.0197C3.91314 17.6463 3.91314 17.2728 3.91314 16.8993C3.91243 16.7441 3.91207 16.5892 3.91135 16.4339C3.90921 16.391 3.90742 16.3481 3.90527 16.3051C3.93461 16.2686 3.96358 16.2322 3.99292 16.1953C4.40895 16.2043 4.82499 16.2232 5.24103 16.2175C5.43527 16.2146 5.51147 16.2604 5.50682 16.4715C5.49322 17.0861 5.49358 17.701 5.5061 18.3152C5.5104 18.5241 5.43813 18.5703 5.24174 18.5678C4.82642 18.5624 4.41074 18.5853 3.99506 18.5967C3.85626 18.4204 3.96859 18.2082 3.91314 18.0197Z" fill="white"/>
<path d="M14.8896 17.031C14.8939 16.8232 14.9068 16.6154 14.9 16.4079C14.895 16.2623 14.9505 16.2183 15.0907 16.2197C15.4849 16.2237 15.8791 16.2208 16.2733 16.2111C16.4297 16.2072 16.4826 16.2626 16.4812 16.4204C16.4747 17.0668 16.4762 17.7132 16.4819 18.36C16.4833 18.5117 16.4347 18.5782 16.2766 18.5746C15.8823 18.5661 15.4881 18.5635 15.0939 18.5668C14.9558 18.5678 14.895 18.5249 14.9015 18.3782C14.9086 18.2148 14.895 18.0506 14.8904 17.8867C14.919 17.6016 14.9161 17.3162 14.8896 17.031Z" fill="white"/>
</svg>
